<svg width="16" height="16" viewBox="0 0 16 16" fill="none" xmlns="http://www.w3.org/2000/svg">
  <path fill-rule="evenodd" clip-rule="evenodd" d="M8 1.333a1.94 1.94 0 0 1 1.84 1.333l.12.37a1.333 1.333 0 0 0 1.58.91l.38-.1a1.94 1.94 0 0 1 2.42 1.15l.17.4a1.94 1.94 0 0 1-.55 2.17l-.29.29a1.333 1.333 0 0 0 0 1.89l.29.29a1.94 1.94 0 0 1 .55 2.17l-.17.4a1.94 1.94 0 0 1-2.42 1.15l-.38-.1a1.333 1.333 0 0 0-1.58.91l-.12.37A1.94 1.94 0 0 1 8 14.667a1.94 1.94 0 0 1-1.84-1.333l-.12-.37a1.333 1.333 0 0 0-1.58-.91l-.38.1a1.94 1.94 0 0 1-2.42-1.15l-.17-.4a1.94 1.94 0 0 1 .55-2.17l.29-.29a1.333 1.333 0 0 0 0-1.89l-.29-.29a1.94 1.94 0 0 1-.55-2.17l.17-.4a1.94 1.94 0 0 1 2.42-1.15l.38.1a1.333 1.333 0 0 0 1.58-.91l.12-.37A1.94 1.94 0 0 1 8 1.333Zm0 4.667a2 2 0 1 0 0 4 2 2 0 0 0 0-4Z" fill="#fff"/>
</svg>
